<svg width="172" height="45" viewBox="0 0 172 45" fill="none" xmlns="http://www.w3.org/2000/svg">
        <g id="Logo_Primary">
        <path id="Vector" d="M32.845 44.35L31.805 18.33H31.695C31.205 21.35 30.815 24.37 30.265 27.39L27.085 44.35H17.975L14.075 18.33H13.965C13.915 21.4 13.965 24.42 13.805 27.5L12.875 44.35H0.844971L5.67497 2.96H19.615L22.795 24.97H22.905C23.235 22.39 23.505 19.86 24.005 17.29L26.695 2.96H40.475L44.485 44.35H32.845ZM47.555 6.26C47.555 2.85 50.355 0 53.755 0C57.155 0 60.125 2.69 60.125 6.2C60.125 9.71 57.385 12.57 53.865 12.57C50.345 12.57 47.555 9.77 47.555 6.26ZM48.435 44.35V15.37H59.195V44.35H48.435ZM80.085 9.44V27.75L73.505 9.44H64.525V44.35H73.595V25.8L80.075 44.35H89.145V9.44H80.075H80.085ZM97.365 44.35V17.96H92.175V9.44H112.225V17.96H106.805V44.35H97.365ZM114.195 6.26C114.195 2.85 116.995 0 120.395 0C123.795 0 126.765 2.69 126.765 6.2C126.765 9.71 124.015 12.57 120.505 12.57C116.995 12.57 114.195 9.77 114.195 6.26ZM115.075 44.35V15.37H125.835V44.35H115.075ZM131.165 9.44H148.715V17.68H140.615V22.54H147.885V30.78H140.615V36.1H148.715V44.34H131.165V9.44ZM152.955 32.59C154.255 34.53 156.515 36.48 158.925 36.48C160.225 36.48 161.705 35.69 161.705 34.17C161.705 33.34 161.425 32.73 160.965 32.23C160.545 31.72 159.995 31.3 159.395 30.89C157.545 29.46 155.925 28.11 154.715 26.45C153.555 24.83 152.815 22.89 152.815 20.34C152.815 16.27 155.405 8.86 163.465 8.86C165.735 8.86 168.185 9.56 170.175 10.62V21.22C169.065 19.46 166.795 17.47 164.615 17.47C163.505 17.47 162.165 18.26 162.165 19.6C162.165 20.34 162.585 20.99 163.085 21.54C163.595 22.1 164.285 22.56 164.805 22.98C166.795 24.37 168.365 25.67 169.435 27.24C170.545 28.81 171.145 30.67 171.145 33.3C171.145 39.78 166.605 44.97 160.035 44.97C157.625 44.97 155.175 44.46 152.955 43.54V32.61V32.59ZM168.675 0C169.515 0 170.175 0.65 170.175 1.47C170.175 2.29 169.515 2.95 168.665 2.95C167.815 2.95 167.145 2.29 167.145 1.47C167.145 0.65 167.815 0 168.665 0L168.675 0ZM168.655 0.3C168.015 0.3 167.525 0.83 167.525 1.48C167.525 2.13 168.015 2.66 168.675 2.66C169.315 2.66 169.795 2.14 169.795 1.49C169.795 0.84 169.315 0.3 168.665 0.3H168.655ZM168.435 2.24H168.095V0.76C168.225 0.74 168.415 0.72 168.665 0.72C168.945 0.72 169.065 0.76 169.165 0.84C169.255 0.9 169.315 1.01 169.315 1.15C169.315 1.33 169.185 1.45 169.005 1.5V1.52C169.145 1.56 169.225 1.68 169.265 1.88C169.305 2.1 169.345 2.19 169.375 2.24H169.015C168.975 2.19 168.945 2.06 168.895 1.88C168.865 1.73 168.775 1.66 168.585 1.66H168.425V2.24H168.435ZM168.435 1.41H168.595C168.785 1.41 168.935 1.35 168.935 1.19C168.935 1.06 168.835 0.97 168.625 0.97C168.535 0.97 168.475 0.97 168.435 0.99V1.41Z" fill="#065639"></path>
        </g>
      </svg>
