<?xml version="1.0" encoding="UTF-8" standalone="no"?>
<!-- Created with Inkscape (http://www.inkscape.org/) -->

<svg
   xmlns:dc="http://purl.org/dc/elements/1.1/"
   xmlns:cc="http://creativecommons.org/ns#"
   xmlns:rdf="http://www.w3.org/1999/02/22-rdf-syntax-ns#"
   xmlns:svg="http://www.w3.org/2000/svg"
   xmlns="http://www.w3.org/2000/svg"
   xmlns:sodipodi="http://sodipodi.sourceforge.net/DTD/sodipodi-0.dtd"
   xmlns:inkscape="http://www.inkscape.org/namespaces/inkscape"
   width="700mm"
   height="700mm"
   viewBox="0 0 700 700"
   version="1.1"
   id="svg4632"
   inkscape:export-filename="C:\Users\suitedoalex\sites\sylvania-logo-0.png"
   inkscape:export-xdpi="148.6263"
   inkscape:export-ydpi="148.6263"
   inkscape:version="0.92.4 (5da689c313, 2019-01-14)"
   sodipodi:docname="sylvania-logo.svg">
  <defs
     id="defs4626">
    <clipPath
       clipPathUnits="userSpaceOnUse"
       id="clipPath62">
      <path
         d="M 191.56,33.933 H 329.399 V 67 H 191.56 Z"
         id="path60"
         inkscape:connector-curvature="0" />
    </clipPath>
    <clipPath
       clipPathUnits="userSpaceOnUse"
       id="clipPath50">
      <path
         d="m 208.365,34.975 h 115.2 v 24.033 h -115.2 z"
         id="path48"
         inkscape:connector-curvature="0" />
    </clipPath>
  </defs>
  <sodipodi:namedview
     id="base"
     pagecolor="#ffffff"
     bordercolor="#666666"
     borderopacity="1.0"
     inkscape:pageopacity="0.0"
     inkscape:pageshadow="2"
     inkscape:zoom="0.24748737"
     inkscape:cx="1762.3293"
     inkscape:cy="1117.4086"
     inkscape:document-units="mm"
     inkscape:current-layer="layer1"
     showgrid="false"
     inkscape:window-width="1600"
     inkscape:window-height="837"
     inkscape:window-x="-8"
     inkscape:window-y="-8"
     inkscape:window-maximized="1" />
  <metadata
     id="metadata4629">
    <rdf:RDF>
      <cc:Work
         rdf:about="">
        <dc:format>image/svg+xml</dc:format>
        <dc:type
           rdf:resource="http://purl.org/dc/dcmitype/StillImage" />
        <dc:title></dc:title>
      </cc:Work>
    </rdf:RDF>
  </metadata>
  <g
     inkscape:label="Layer 1"
     inkscape:groupmode="layer"
     id="layer1"
     transform="translate(0,403)">
    <g
       transform="matrix(4.4212882,0,0,-4.4212882,-825.90896,154.7612)"
       id="g44"
       inkscape:export-xdpi="19.947762"
       inkscape:export-ydpi="19.947762">
      <g
         id="g46"
         clip-path="url(#clipPath50)">
        <g
           id="g52"
           transform="translate(259.7604,44.8162)">
          <path
             d="M 0,0 V 4.759 L -2.763,0 Z M 4.177,7.434 4.191,-4.084 H 0 v 2.417 h -3.699 l -1.405,-2.417 h -4.497 l 7.295,11.518 z m 13.086,0 -2.293,-7.788 -0.867,7.788 H 8.309 L 4.744,-4.084 h 3.362 l 2.389,8.073 1.094,-8.073 h 5.428 L 20.586,7.434 Z M 33.714,0 V 4.759 L 30.951,0 Z m 0,-4.084 v 2.417 h -3.7 l -1.405,-2.417 h -4.497 l 7.299,11.518 h 6.477 L 37.907,-4.084 Z M 22.734,7.434 19.158,-4.101 h 4.211 l 3.58,11.535 z m -44.281,0 h -4.168 L -29.17,-4.084 h 9.482 l 0.73,2.803 -5.228,-0.019 z m -8.475,0 -3.565,-4.944 -0.932,4.944 h -4.295 l 1.905,-8.044 -0.973,-3.474 h 4.295 l 1.053,3.474 6.361,8.044 z m -13.209,0 c -5.227,0 -6.685,-1.981 -6.685,-4.29 0,-3.456 5.753,-1.557 5.753,-3.794 0,-0.559 -0.608,-1.348 -1.863,-1.348 -1.379,0 -1.419,0.859 -1.055,1.861 h -4.044 c -1.142,-3.46 1.532,-4.334 4.41,-4.334 2.835,0 6.889,1.08 6.889,4.656 0,3.924 -5.957,1.858 -5.957,3.642 0,0.973 0.689,1.296 1.578,1.296 1.178,0 1.259,-0.69 1.136,-1.499 h 4.011 c 0.689,3.08 -1.376,3.81 -4.173,3.81 m 38.452,0 -7.078,-11.518 h -6.412 l -0.016,11.518 h 4.17 l 0.016,-8.827 4.942,8.827 z"
             style="fill:#ff5200;fill-opacity:1;fill-rule:nonzero;stroke:none"
             id="path54"
             inkscape:connector-curvature="0" />
        </g>
      </g>
    </g>
    <g
       transform="matrix(4.4212882,0,0,-4.4212882,-825.90896,154.7612)"
       id="g56"
       inkscape:export-xdpi="19.947762"
       inkscape:export-ydpi="19.947762">
      <g
         id="g58"
         clip-path="url(#clipPath62)">
        <g
           id="g64"
           transform="translate(303.539,46.9916)">
          <path
             d="m 0,0 c 0,-6.637 4.483,-12.017 10.013,-12.017 5.53,0 10.013,5.38 10.013,12.017 0,6.636 -4.483,12.016 -10.013,12.016 C 4.483,12.016 0,6.636 0,0"
             style="fill:#ff5200;fill-opacity:1;fill-rule:evenodd;stroke:none"
             id="path66"
             inkscape:connector-curvature="0" />
        </g>
        <g
           id="g68"
           transform="translate(312.5102,38.9067)">
          <path
             d="M 0,0 C 0,-0.19 0.278,-0.493 0.412,-0.493 H 1.044 1.676 C 1.81,-0.493 2.088,-0.19 2.088,0 H 1.044 Z"
             style="fill:#ffffff;fill-opacity:1;fill-rule:nonzero;stroke:none"
             id="path70"
             inkscape:connector-curvature="0" />
        </g>
        <g
           id="g72"
           transform="translate(311.9244,40.8739)">
          <path
             d="m 0,0 v -1.256 c 0,-0.173 0.1,-0.351 0.252,-0.351 h 1.377 1.378 c 0.152,0 0.252,0.178 0.252,0.351 V 0 h -1.63 z"
             style="fill:#ffffff;fill-opacity:1;fill-rule:nonzero;stroke:none"
             id="path74"
             inkscape:connector-curvature="0" />
        </g>
        <g
           id="g76"
           transform="translate(311.6724,42.3206)">
          <path
             d="m 0,0 v -0.033 -0.703 c 0,-0.173 0.1,-0.351 0.252,-0.351 h 1.63 1.629 c 0.153,0 0.253,0.178 0.253,0.351 v 0.703 L 3.764,0 H 1.882 Z"
             style="fill:#ffffff;fill-opacity:1;fill-rule:nonzero;stroke:none"
             id="path78"
             inkscape:connector-curvature="0" />
        </g>
        <g
           id="g80"
           transform="translate(313.5539,54.0314)">
          <path
             d="m 0,0 c -3.266,0 -4.722,-2.879 -4.722,-4.771 0,-1.657 1.204,-3.121 1.606,-3.818 0.402,-0.696 0.668,-2.076 0.732,-2.261 0.064,-0.185 0.257,-0.501 0.504,-0.501 H 0 1.881 c 0.247,0 0.439,0.316 0.503,0.501 0.067,0.193 0.33,1.563 0.732,2.261 0.402,0.697 1.607,2.161 1.607,3.818 C 4.723,-2.877 3.266,0 0,0"
             style="fill:#ffffff;fill-opacity:1;fill-rule:nonzero;stroke:none"
             id="path82"
             inkscape:connector-curvature="0" />
        </g>
        <g
           id="g84"
           transform="translate(314.8112,46.4899)">
          <path
             d="M 0,0 V 0.977 L -0.567,0 Z M 0.857,1.526 0.86,-0.838 H 0 v 0.496 h -0.76 l -0.288,-0.496 h -0.923 l 1.498,2.364 z m 2.686,0 -0.47,-1.599 -0.178,1.599 H 1.706 L 0.974,-0.838 h 0.69 l 0.49,1.657 0.225,-1.657 H 3.493 L 4.226,1.526 Z M 6.921,0 V 0.977 L 6.353,0 Z m 0,-0.838 v 0.496 H 6.162 L 5.873,-0.838 H 4.95 l 1.498,2.364 h 1.33 L 7.782,-0.838 Z M 4.667,1.526 3.933,-0.841 h 0.864 l 0.735,2.367 z m -9.091,0 h -0.855 l -0.709,-2.364 h 1.946 l 0.15,0.575 -1.073,-0.003 z m -1.739,0 -0.732,-1.014 -0.191,1.014 h -0.882 l 0.391,-1.65 -0.2,-0.714 h 0.882 l 0.216,0.714 1.306,1.65 z m -2.711,0 c -1.074,0 -1.373,-0.406 -1.373,-0.88 0,-0.71 1.181,-0.32 1.181,-0.779 0,-0.115 -0.125,-0.277 -0.382,-0.277 -0.284,0 -0.292,0.177 -0.217,0.382 h -0.831 c -0.234,-0.71 0.315,-0.889 0.906,-0.889 0.582,0 1.414,0.221 1.414,0.955 0,0.806 -1.222,0.382 -1.222,0.748 0,0.2 0.141,0.266 0.323,0.266 0.242,0 0.258,-0.141 0.233,-0.307 h 0.824 C -7.877,1.376 -8.3,1.526 -8.874,1.526 m 7.893,0 -1.453,-2.364 h -1.317 l -0.003,2.364 h 0.856 l 0.004,-1.811 1.014,1.811 z"
             style="fill:#231f20;fill-opacity:1;fill-rule:nonzero;stroke:none"
             id="path86"
             inkscape:connector-curvature="0" />
        </g>
      </g>
    </g>
  </g>
</svg>
